<svg height="718" width="720" xmlns="http://www.w3.org/2000/svg">
<rect height="718" fill="#555" width="720"></rect>
<text fill="#7f7" font-family="Courier New" font-size="12" xml:space="preserve">
<tspan x="10" y="26">4 megabytes installed</tspan>
<tspan x="10" y="42"></tspan>
<tspan x="10" y="58">node_modules</tspan>
<tspan x="10" y="74">└─┬ analyze-css@0.12.4 </tspan>
<tspan x="10" y="90">  ├─┬ cli@1.0.1 </tspan>
<tspan x="10" y="106">  │ └── exit@0.1.2 </tspan>
<tspan x="10" y="122">  ├─┬ css@2.2.1 </tspan>
<tspan x="10" y="138">  │ ├── inherits@2.0.3 </tspan>
<tspan x="10" y="154">  │ ├─┬ source-map@0.1.43 </tspan>
<tspan x="10" y="170">  │ │ └── amdefine@1.0.1 </tspan>
<tspan x="10" y="186">  │ ├─┬ source-map-resolve@0.3.1 </tspan>
<tspan x="10" y="202">  │ │ ├── atob@1.1.3 </tspan>
<tspan x="10" y="218">  │ │ ├── resolve-url@0.2.1 </tspan>
<tspan x="10" y="234">  │ │ └── source-map-url@0.3.0 </tspan>
<tspan x="10" y="250">  │ └── urix@0.1.0 </tspan>
<tspan x="10" y="266">  ├── css-shorthand-properties@1.0.0 </tspan>
<tspan x="10" y="282">  ├─┬ debug@2.2.0 </tspan>
<tspan x="10" y="298">  │ └── ms@0.7.1 </tspan>
<tspan x="10" y="314">  ├── fast-stats@0.0.3 </tspan>
<tspan x="10" y="330">  ├─┬ glob@7.1.1 </tspan>
<tspan x="10" y="346">  │ ├── fs.realpath@1.0.0 </tspan>
<tspan x="10" y="362">  │ ├─┬ inflight@1.0.6 </tspan>
<tspan x="10" y="378">  │ │ └── wrappy@1.0.2 </tspan>
<tspan x="10" y="394">  │ ├─┬ minimatch@3.0.3 </tspan>
<tspan x="10" y="410">  │ │ └─┬ brace-expansion@1.1.7 </tspan>
<tspan x="10" y="426">  │ │   ├── balanced-match@0.4.2 </tspan>
<tspan x="10" y="442">  │ │   └── concat-map@0.0.1 </tspan>
<tspan x="10" y="458">  │ ├── once@1.4.0 </tspan>
<tspan x="10" y="474">  │ └── path-is-absolute@1.0.1 </tspan>
<tspan x="10" y="490">  ├─┬ http-proxy-agent@1.0.0 </tspan>
<tspan x="10" y="506">  │ ├─┬ agent-base@2.0.1 </tspan>
<tspan x="10" y="522">  │ │ └── semver@5.0.3 </tspan>
<tspan x="10" y="538">  │ └── extend@3.0.0 </tspan>
<tspan x="10" y="554">  ├─┬ node-fetch@1.6.3 </tspan>
<tspan x="10" y="570">  │ ├─┬ encoding@0.1.12 </tspan>
<tspan x="10" y="586">  │ │ └── iconv-lite@0.4.15 </tspan>
<tspan x="10" y="602">  │ └── is-stream@1.1.0 </tspan>
<tspan x="10" y="618">  ├── onecolor@3.0.4 </tspan>
<tspan x="10" y="634">  ├─┬ optimist@0.6.1 </tspan>
<tspan x="10" y="650">  │ ├── minimist@0.0.10 </tspan>
<tspan x="10" y="666">  │ └── wordwrap@0.0.3 </tspan>
<tspan x="10" y="682">  ├── slick@1.12.2 </tspan>
<tspan x="10" y="698">  └── specificity@0.2.1</tspan>
</text>
</svg>
